<svg xmlns="http://www.w3.org/2000/svg" width="48" height="48" fill="none"><path fill="#00BF78" d="M0 37.6c0 4.333 12.867 4.8 18.4 4.8 6.853 0 12.426-.666 15.46-1.834a6.426 6.426 0 0 0 4.126 1.834c.65 0 .633-.034 4.845-.982 2.309-.52 3.993-2.908 4.746-6.72a31.82 31.82 0 0 0-.506-12.685c-2.217-9.847-7.551-16.755-12.15-15.716l-3.901.88c-1.64.37-2.926 1.706-3.808 3.705-5.75-1.561-6.37 2.718-11.898 1.926C10.48 12.118 10.4 6.632 10.4 6.4a.8.8 0 0 0-1.429-.495c-.167.213-3.912 5.065-3.154 10.894C1.434 17.494.8 18.361.8 19.2v2.72A1.53 1.53 0 0 0 0 23.2v14.4Zm7.95-15.717c6.016.595 12.07.679 18.1.25.084.8.19 1.617.335 2.448-5.323.309-19.36.485-23.985-1.108V20.8a24.42 24.42 0 0 0 5.55 1.083ZM1.6 37.6v-9.556A45.027 45.027 0 0 0 11.95 29.6a.801.801 0 1 0 .1-1.6c-5.85-.364-8.883-1.062-10.45-1.645V24.88c4.807 1.846 19.634 1.616 25.095 1.287.966 4.503 2.88 9.665 5.915 13.147-2.965.95-8.027 1.486-14.21 1.486-11.588 0-16.8-1.871-16.8-3.2Zm43.91-15.237a30.17 30.17 0 0 1 .496 12.024c-.612 3.109-1.897 5.103-3.526 5.47-3.206.72-8.08-4.937-10.24-14.506-2.16-9.569-.17-16.772 3.034-17.493.185-.042.374-.062.564-.062 3.188 0 7.64 5.545 9.672 14.567ZM31.371 8.737l.485-.11c-4.991 7.554-.542 27.315 7.207 32l-.485.11c-1.63.366-3.646-.88-5.532-3.429a30.194 30.194 0 0 1-4.706-11.076 38.984 38.984 0 0 1-.791-5.074c-.582-6.956 1.216-11.834 3.822-12.421ZM8.095 10.965c.08 3.685 1.893 6.274 5.252 7.394a.801.801 0 0 0 .506-1.52c-3.44-1.147-4.24-3.945-4.155-6.52a6.816 6.816 0 0 0 5.388 4.071c6.06.868 6.697-3.21 11.566-2a24.08 24.08 0 0 0-.736 8.15c-5.78.407-11.582.34-17.35-.202a11.326 11.326 0 0 1-.47-9.373ZM6.122 18.37c.158.593.356 1.174.59 1.741a16.991 16.991 0 0 1-4-.91 14.37 14.37 0 0 1 3.41-.83Z"/><path fill="#00BF78" d="M15.2 29.6a.8.8 0 1 0 0-1.6.8.8 0 0 0 0 1.6Zm18.51-11.79a.8.8 0 0 0 1.592-.16c-.382-3.817.387-5.025.88-5.405.361-.25.82-.313 1.235-.168a.8.8 0 0 0 .585-1.489 2.96 2.96 0 0 0-2.77.369c-1.362 1.025-1.872 3.33-1.522 6.853Zm6.69 18.133a2.96 2.96 0 0 0 2.771-.37c1.36-1.024 1.875-3.33 1.52-6.853a.8.8 0 0 0-1.592.16c.383 3.818-.387 5.025-.88 5.406-.36.25-.82.313-1.234.168a.8.8 0 0 0-.587 1.49h.002Z"/></svg>