<svg xmlns="http://www.w3.org/2000/svg" width="44" height="48" fill="none"><path fill="#00BF78" d="M19.364 21.883a.772.772 0 0 0-1.118 0 .772.772 0 0 0 0 1.119l1.198 1.198c.16.16.32.24.56.24.16 0 .399-.08.558-.24a.772.772 0 0 0 0-1.119l-1.198-1.198Z"/><path fill="#00BF78" d="M42.766 45.604a3.955 3.955 0 0 1-3.994-3.993c0-3.515-2.875-6.39-6.39-6.39-.542 0-1.07.07-1.574.198l-7.53-9.063a1.755 1.755 0 0 1-.1-.194c.761-1.006 3.462-4.466 13.038-16.738 1.837-2.476 3.115-5.191 3.914-8.146l.16-.56-.88-.638-6.07 3.514-12.908 15.431L7.385 3.435 1.794.24 1.314 0 .437.719l.16.559c.798 2.955 2.156 5.67 3.913 8.146l13.118 16.777a.49.49 0 0 1-.1.155l-7.53 9.063a6.345 6.345 0 0 0-1.574-.198c-3.514 0-6.39 2.876-6.39 6.39S4.91 48 8.423 48s6.39-2.875 6.39-6.39c0-1.26-.373-2.437-1.01-3.43l6.568-8.47 6.627 8.475a6.337 6.337 0 0 0-1.005 3.425c0 3.515 2.876 6.39 6.39 6.39 2.437 0 4.566-1.384 5.642-3.404a5.558 5.558 0 0 0 4.74 2.605.8.8 0 0 0 .799-.798c0-.48-.32-.8-.798-.8ZM34.379 4.792l3.674-2.077c-.718 2.077-1.757 3.994-3.035 5.75-.08.08-7.907 10.064-11.5 14.776l-.001-.002a2.573 2.573 0 0 0-.061-.256c-.006-.02-.011-.04-.018-.059a2.684 2.684 0 0 0-.48-.88l-1.494-1.786L34.38 4.792ZM2.752 2.715l3.594 2.077 15.335 18.21c.24.399.32.878.08 1.277a2.65 2.65 0 0 0 .24 3.035l7.267 8.706c-.13.077-.259.164-.388.255a6.443 6.443 0 0 0-.703.538l-.107.085L5.787 8.466C4.51 6.709 3.471 4.792 2.752 2.716Zm5.67 43.688a4.806 4.806 0 0 1-4.791-4.792 4.806 4.806 0 0 1 4.792-4.792c.344 0 .679.037 1.003.107l.594.212c.26.07.505.17.736.293.361.202.694.45.99.736.152.153.296.316.43.489l.156.194c.555.782.883 1.735.883 2.76a4.806 4.806 0 0 1-4.792 4.793Zm10.943-17.97-6.598 8.505a6.444 6.444 0 0 0-1.195-.88l7.062-8.57.55.705.18.24Zm13.018 17.97a4.806 4.806 0 0 1-4.792-4.792c0-1.026.328-1.979.882-2.76l.156-.195c.56-.72 1.278-1.198 2.156-1.518l.595-.212c.324-.07.659-.107 1.003-.107a4.806 4.806 0 0 1 4.792 4.792 4.806 4.806 0 0 1-4.792 4.792Z"/></svg>