<svg xmlns="http://www.w3.org/2000/svg" width="28" height="28" fill="none"><path fill="#000" fill-opacity=".4" fill-rule="evenodd" d="M14 0a14 14 0 1 1 0 28 14 14 0 0 1 0-28Zm7.58 8.76a3.861 3.861 0 0 0-.922-1.42 3.794 3.794 0 0 0-1.415-.92 5.62 5.62 0 0 0-1.942-.37c-.853-.04-1.125-.05-3.3-.05s-2.449 0-3.3.05a5.583 5.583 0 0 0-1.941.37 3.79 3.79 0 0 0-1.416.92 3.85 3.85 0 0 0-.921 1.42 5.769 5.769 0 0 0-.371 1.94c-.037.85-.049 1.12-.049 3.3 0 2.18.006 2.45.049 3.3.012.663.138 1.32.371 1.94.2.535.514 1.02.921 1.42.402.403.885.716 1.416.92a5.856 5.856 0 0 0 1.941.37c.853.04 1.126.05 3.3.05s2.448-.01 3.3-.05a5.83 5.83 0 0 0 1.942-.37 4.06 4.06 0 0 0 1.415-.92c.406-.401.721-.886.922-1.42a5.85 5.85 0 0 0 .37-1.94c.038-.85.05-1.13.05-3.3s-.006-2.45-.05-3.3a5.744 5.744 0 0 0-.37-1.94Zm-1.07 8.47a4.3 4.3 0 0 1-.278 1.48c-.127.351-.332.67-.6.93a2.634 2.634 0 0 1-.921.6 4.321 4.321 0 0 1-1.484.27c-.847.04-1.094.05-3.233.05-2.139 0-2.393 0-3.234-.05a4.29 4.29 0 0 1-1.484-.27 2.69 2.69 0 0 1-.921-.6 2.542 2.542 0 0 1-.6-.93 4.356 4.356 0 0 1-.278-1.48c-.037-.85-.049-1.1-.049-3.23s.006-2.39.049-3.24a4.415 4.415 0 0 1 .278-1.48 2.664 2.664 0 0 1 1.521-1.52c.475-.176.977-.27 1.484-.28.847-.04 1.1-.05 3.234-.05s2.392.01 3.233.05a4.47 4.47 0 0 1 1.484.28c.349.127.664.332.921.6a2.5 2.5 0 0 1 .6.92c.177.474.27.974.278 1.48.037.85.049 1.1.049 3.24s-.012 2.39-.049 3.23Zm-6.516-7.34a4.11 4.11 0 1 0 .002 8.22 4.11 4.11 0 0 0-.002-8.22Zm0 6.78a2.67 2.67 0 1 1 0-5.34 2.67 2.67 0 0 1 0 5.34Zm4.272-7.9a.955.955 0 1 1-.008 1.91.955.955 0 0 1 .008-1.91Z" clip-rule="evenodd"/></svg>