<svg xmlns="http://www.w3.org/2000/svg" width="28" height="28" fill="none"><path fill="#000" fill-opacity=".4" fill-rule="evenodd" d="M14 0a14 14 0 1 1 0 28 14 14 0 0 1 0-28Zm5.186 15.14c.169-.31.767-1.21 1.217-1.89 1.351-1.98 1.6-2.4 1.6-2.65a.353.353 0 0 0-.352-.35h-3.165a.35.35 0 0 0-.345.29 12.655 12.655 0 0 1-2.814 3.9 1.037 1.037 0 0 1-.352-1.05v-2.94a.822.822 0 0 0-.168-.65c-.24-.25-.6-.25-1.6-.25-1.815 0-2.462.54-2.462 1.05a.324.324 0 0 0 .294.35h.022s.387.25.387 1.75c.02.582-.01 1.164-.091 1.74-.894-.16-2.132-2.37-2.723-3.97a.353.353 0 0 0-.351-.22H5.469a.353.353 0 0 0-.352.41c.394 2.11 4.861 8.67 7.738 8.67h1.407c.746 0 .8-.8.844-1.33.044-.53.077-.76.211-.76.726.272 1.38.707 1.913 1.27.334.383.768.667 1.253.82h1.758c.908 0 1.759 0 1.759-.7 0-.26-.232-.57-1.569-2.09a44.59 44.59 0 0 1-1.245-1.4Z" clip-rule="evenodd"/></svg>