<svg xmlns="http://www.w3.org/2000/svg" width="28" height="28" fill="none"><path fill="#000" fill-opacity=".4" fill-rule="evenodd" d="M14 0a14 14 0 1 1 0 28 14 14 0 0 1 0-28Zm6.855 11.16a3.1 3.1 0 0 0-.556-1.41 2 2 0 0 0-1.4-.6c-1.958-.14-4.9-.14-4.9-.14h-.006s-2.938 0-4.9.14a1.994 1.994 0 0 0-1.4.6c-.3.417-.49.901-.556 1.41a21.812 21.812 0 0 0-.14 2.3v1.08c.006.769.053 1.536.14 2.3.065.509.256.993.556 1.41.422.385.971.602 1.543.61 1.12.11 4.758.14 4.758.14s2.941-.01 4.9-.15a1.952 1.952 0 0 0 1.4-.6 3.1 3.1 0 0 0 .556-1.41c.087-.764.134-1.531.14-2.3v-1.08a21.823 21.823 0 0 0-.135-2.3Zm-8.3 4.69v-4l3.781 2.01-3.781 1.99Z" clip-rule="evenodd"/></svg>