<svg xmlns="http://www.w3.org/2000/svg" width="48" height="48" fill="none"><path fill="#00BF78" d="M46.4 40.8V7.2C47.36 6.4 48 5.28 48 4c0-2.24-1.76-4-4-4-1.28 0-2.48.64-3.2 1.6H7.2C6.4.64 5.28 0 4 0 1.76 0 0 1.76 0 4c0 1.28.64 2.48 1.6 3.2v33.6C.64 41.6 0 42.72 0 44c0 2.24 1.76 4 4 4 1.28 0 2.48-.64 3.2-1.6h33.6c.8.96 1.92 1.6 3.2 1.6 2.24 0 4-1.76 4-4 0-1.28-.64-2.48-1.6-3.2ZM44 46.4c-.88 0-1.68-.48-2.08-1.2a.84.84 0 0 0-.72-.4H6.72c-.24 0-.48.16-.64.4-.48.72-1.2 1.2-2.08 1.2-1.36 0-2.4-1.04-2.4-2.4 0-.8.48-1.6 1.2-2 .24-.16.4-.4.4-.72V6.8a.84.84 0 0 0-.4-.72c-.72-.4-1.2-1.2-1.2-2.08 0-1.36 1.04-2.4 2.4-2.4.88 0 1.6.48 2 1.2.16.24.4.4.72.4H41.2c.32 0 .56-.16.72-.4.48-.72 1.2-1.2 2.08-1.2 1.36 0 2.4 1.04 2.4 2.4 0 .88-.48 1.68-1.2 2.08-.24.16-.4.4-.4.72v34.4c0 .32.16.56.4.72.72.48 1.2 1.2 1.2 2.08 0 1.36-1.04 2.4-2.4 2.4Z"/><path fill="#00BF78" d="M42.4 4.8H5.6c-.48 0-.8.32-.8.8v36.8c0 .48.32.8.8.8h36.8c.48 0 .8-.32.8-.8V5.6c0-.48-.32-.8-.8-.8Zm-.8 36.8H6.4V6.4h35.2v35.2Z"/><path fill="#00BF78" d="M9.6 13.6c.24 0 .4-.08.56-.24l3.2-3.2c.32-.32.32-.8 0-1.12a.773.773 0 0 0-1.12 0l-3.2 3.2c-.32.32-.32.8 0 1.12.16.16.32.24.56.24Zm0 4c.24 0 .4-.08.56-.24l1.6-1.6c.32-.32.32-.8 0-1.12a.773.773 0 0 0-1.12 0l-1.6 1.6c-.32.32-.32.8 0 1.12.16.16.32.24.56.24Zm4.24-5.04c.16.16.32.24.56.24.24 0 .4-.08.56-.24l2.4-2.4c.32-.32.32-.8 0-1.12a.773.773 0 0 0-1.12 0l-2.4 2.4c-.32.32-.32.8 0 1.12ZM9.6 21.6c.24 0 .4-.08.56-.24l7.2-7.2c.32-.32.32-.8 0-1.12a.774.774 0 0 0-1.12 0l-7.2 7.2c-.32.32-.32.8 0 1.12.16.16.32.24.56.24ZM20 11.2c.24 0 .4-.08.56-.24l.8-.8c.32-.32.32-.8 0-1.12a.773.773 0 0 0-1.12 0l-.8.8c-.32.32-.32.8 0 1.12.16.16.32.24.56.24Zm-8 2.4c0 .48.32.8.8.8.48 0 .8-.32.8-.8 0-.4-.32-.8-.8-.8-.48 0-.8.32-.8.8Zm6.4-.8c.48 0 .8-.32.8-.8 0-.4-.32-.8-.8-.8-.48 0-.8.32-.8.8 0 .48.32.8.8.8Z"/></svg>